# xmcd
#
# Track frame offsets:
#	150
#	10235
#	30462
#	48162
#	59355
#	70721
#	85007
#	108350
#	125214
#	132619
#	145370
#	157307
#	175734
#
# Disc length: 2501 seconds
# Revision: 0
# Processed by: cddbd v1.5.2PL0 Copyright (c) Steve Scherf et al.
# Submitted via: dBpowerAMP V12.0
#
DISCID=b609c30d
DTITLE=Various Artist - Banjo Babes
DYEAR=2013
DGENRE=Country
TTITLE0=Hilary Hawke - Little Orchid
TTITLE1=Atwater-Donnelly - When I Go To West Virginia
TTITLE2=Evie Ladin - Precious Days
TTITLE3=Lauren Sheehan - Georgia Buck
TTITLE4=Dale Robin Goodman - Boatman
TTITLE5=Kaia Kater - Rappin' Shady Grove
TTITLE6=Atwater-Donnelly - See That My Grave is Kept Clean
TTITLE7=Lauren Sheehan - Willie Moore
TTITLE8=Hilary Hawke - Greasy Goat
TTITLE9=Evie Ladin - I Love My Honey
TTITLE10=Dale Robin Goodman - High on a Mountain
TTITLE11=Kaia Kater - Maggie May
TTITLE12=Hilary Hawke\\Aubrey Atwater\\Hilary Hawke\\Dale Robin Goodman\\Evie Ladin\\Kaia Kater - Banjo Jokes
EXTD=
EXTT0=
EXTT1=
EXTT2=
EXTT3=
EXTT4=
EXTT5=
EXTT6=
EXTT7=
EXTT8=
EXTT9=
EXTT10=
EXTT11=
EXTT12=
PLAYORDER=
